<mxfile host="app.diagrams.net" modified="2023-07-09T06:38:08.805Z" agent="Mozilla/5.0 (Windows NT 10.0; Win64; x64) AppleWebKit/537.36 (KHTML, like Gecko) Chrome/114.0.0.0 Safari/537.36" etag="lD6nM_SPaPx27fO9Fok2" version="21.6.1" type="device">
  <diagram name="第 1 页" id="WHtAwQGQ0BkQ2NNNeCEz">
    <mxGraphModel dx="1436" dy="786" grid="1" gridSize="10" guides="1" tooltips="1" connect="1" arrows="1" fold="1" page="1" pageScale="1" pageWidth="827" pageHeight="1169" math="0" shadow="0">
      <root>
        <mxCell id="0" />
        <mxCell id="1" parent="0" />
        <mxCell id="UoUrf2fMg5jWvUFP8u-N-36" style="edgeStyle=orthogonalEdgeStyle;rounded=0;orthogonalLoop=1;jettySize=auto;html=1;exitX=0.5;exitY=0.5;exitDx=0;exitDy=0;exitPerimeter=0;" edge="1" parent="1" source="UoUrf2fMg5jWvUFP8u-N-1">
          <mxGeometry relative="1" as="geometry">
            <mxPoint x="180" y="290" as="targetPoint" />
          </mxGeometry>
        </mxCell>
        <mxCell id="UoUrf2fMg5jWvUFP8u-N-1" value="&lt;font face=&quot;Comic Sans MS&quot; style=&quot;font-size: 20px;&quot;&gt;Admin&lt;/font&gt;" style="shape=umlActor;verticalLabelPosition=bottom;verticalAlign=top;html=1;outlineConnect=0;" vertex="1" parent="1">
          <mxGeometry x="70" y="260" width="30" height="60" as="geometry" />
        </mxCell>
        <mxCell id="UoUrf2fMg5jWvUFP8u-N-44" style="edgeStyle=orthogonalEdgeStyle;rounded=0;orthogonalLoop=1;jettySize=auto;html=1;exitX=0.5;exitY=0.5;exitDx=0;exitDy=0;exitPerimeter=0;entryX=0;entryY=0.5;entryDx=0;entryDy=0;" edge="1" parent="1" source="UoUrf2fMg5jWvUFP8u-N-2" target="UoUrf2fMg5jWvUFP8u-N-38">
          <mxGeometry relative="1" as="geometry" />
        </mxCell>
        <mxCell id="UoUrf2fMg5jWvUFP8u-N-2" value="&lt;font style=&quot;font-size: 20px;&quot;&gt;User&lt;/font&gt;" style="shape=umlActor;verticalLabelPosition=bottom;verticalAlign=top;html=1;outlineConnect=0;" vertex="1" parent="1">
          <mxGeometry x="70" y="567.5" width="30" height="60" as="geometry" />
        </mxCell>
        <mxCell id="UoUrf2fMg5jWvUFP8u-N-13" value="&lt;font face=&quot;Comic Sans MS&quot; style=&quot;&quot;&gt;&lt;font style=&quot;font-size: 20px;&quot;&gt;database(MySQL)&lt;/font&gt;&lt;br&gt;&lt;/font&gt;" style="shape=cylinder3;whiteSpace=wrap;html=1;boundedLbl=1;backgroundOutline=1;size=15;" vertex="1" parent="1">
          <mxGeometry x="970" y="210" width="200" height="160" as="geometry" />
        </mxCell>
        <mxCell id="UoUrf2fMg5jWvUFP8u-N-34" value="" style="group" vertex="1" connectable="0" parent="1">
          <mxGeometry x="185" y="170" width="240" height="240" as="geometry" />
        </mxCell>
        <mxCell id="UoUrf2fMg5jWvUFP8u-N-3" value="" style="whiteSpace=wrap;html=1;aspect=fixed;" vertex="1" parent="UoUrf2fMg5jWvUFP8u-N-34">
          <mxGeometry width="240" height="240" as="geometry" />
        </mxCell>
        <mxCell id="UoUrf2fMg5jWvUFP8u-N-4" value="&lt;font face=&quot;Comic Sans MS&quot; style=&quot;font-size: 16px;&quot;&gt;Analytics and Reporting&lt;/font&gt;" style="rounded=0;whiteSpace=wrap;html=1;" vertex="1" parent="UoUrf2fMg5jWvUFP8u-N-34">
          <mxGeometry x="25" y="180" width="190" height="40" as="geometry" />
        </mxCell>
        <mxCell id="UoUrf2fMg5jWvUFP8u-N-8" value="&lt;font face=&quot;Comic Sans MS&quot; style=&quot;font-size: 20px;&quot;&gt;napi-hub-backend&lt;/font&gt;" style="text;html=1;strokeColor=none;fillColor=none;align=center;verticalAlign=middle;whiteSpace=wrap;rounded=0;" vertex="1" parent="UoUrf2fMg5jWvUFP8u-N-34">
          <mxGeometry x="25" y="10" width="200" height="30" as="geometry" />
        </mxCell>
        <mxCell id="UoUrf2fMg5jWvUFP8u-N-33" value="&lt;p style=&quot;line-height: 150%;&quot;&gt;&lt;font face=&quot;Comic Sans MS&quot; style=&quot;font-size: 16px;&quot;&gt;API Publication&lt;br&gt;API Offline&lt;br&gt;API Settings&lt;br&gt;API Management&lt;/font&gt;&lt;/p&gt;" style="rounded=0;whiteSpace=wrap;html=1;" vertex="1" parent="UoUrf2fMg5jWvUFP8u-N-34">
          <mxGeometry x="25" y="50" width="190" height="112" as="geometry" />
        </mxCell>
        <mxCell id="UoUrf2fMg5jWvUFP8u-N-35" style="edgeStyle=orthogonalEdgeStyle;rounded=0;orthogonalLoop=1;jettySize=auto;html=1;exitX=1;exitY=0.5;exitDx=0;exitDy=0;" edge="1" parent="1" source="UoUrf2fMg5jWvUFP8u-N-3" target="UoUrf2fMg5jWvUFP8u-N-13">
          <mxGeometry relative="1" as="geometry" />
        </mxCell>
        <mxCell id="UoUrf2fMg5jWvUFP8u-N-37" value="" style="group;imageWidth=24;" vertex="1" connectable="0" parent="1">
          <mxGeometry x="185" y="477" width="240" height="240" as="geometry" />
        </mxCell>
        <mxCell id="UoUrf2fMg5jWvUFP8u-N-38" value="" style="whiteSpace=wrap;html=1;aspect=fixed;" vertex="1" parent="UoUrf2fMg5jWvUFP8u-N-37">
          <mxGeometry width="240" height="240" as="geometry" />
        </mxCell>
        <mxCell id="UoUrf2fMg5jWvUFP8u-N-40" value="&lt;font face=&quot;Comic Sans MS&quot; style=&quot;font-size: 20px;&quot;&gt;napi-hub-frontend&lt;/font&gt;" style="text;html=1;strokeColor=none;fillColor=none;align=center;verticalAlign=middle;whiteSpace=wrap;rounded=0;" vertex="1" parent="UoUrf2fMg5jWvUFP8u-N-37">
          <mxGeometry x="25" y="10" width="200" height="30" as="geometry" />
        </mxCell>
        <mxCell id="UoUrf2fMg5jWvUFP8u-N-41" value="&lt;p style=&quot;line-height: 150%; font-size: 16px;&quot;&gt;&lt;font face=&quot;Comic Sans MS&quot; style=&quot;font-size: 16px;&quot;&gt;API Discovery&lt;br&gt;&lt;span style=&quot;&quot;&gt;API Subscription&lt;/span&gt;&lt;br&gt;&lt;span style=&quot;&quot;&gt;API Online Request&lt;/span&gt;&lt;/font&gt;&lt;/p&gt;" style="rounded=0;whiteSpace=wrap;html=1;" vertex="1" parent="UoUrf2fMg5jWvUFP8u-N-37">
          <mxGeometry x="25" y="50" width="190" height="170" as="geometry" />
        </mxCell>
        <mxCell id="UoUrf2fMg5jWvUFP8u-N-45" value="&lt;p style=&quot;line-height: 150%;&quot;&gt;&lt;font face=&quot;Comic Sans MS&quot; style=&quot;&quot;&gt;&lt;font style=&quot;font-size: 20px;&quot;&gt;napi-client-sdk&lt;/font&gt;&lt;br&gt;&lt;font style=&quot;font-size: 16px;&quot;&gt;(Streamline API integration with our user-friendly SDK)&lt;/font&gt;&lt;br&gt;&lt;/font&gt;&lt;/p&gt;" style="rounded=0;whiteSpace=wrap;html=1;" vertex="1" parent="1">
          <mxGeometry x="185" y="760" width="240" height="97" as="geometry" />
        </mxCell>
        <mxCell id="UoUrf2fMg5jWvUFP8u-N-48" value="" style="group" vertex="1" connectable="0" parent="1">
          <mxGeometry x="510" y="477" width="380" height="380" as="geometry" />
        </mxCell>
        <mxCell id="UoUrf2fMg5jWvUFP8u-N-18" value="" style="whiteSpace=wrap;html=1;aspect=fixed;" vertex="1" parent="UoUrf2fMg5jWvUFP8u-N-48">
          <mxGeometry width="380" height="380" as="geometry" />
        </mxCell>
        <mxCell id="UoUrf2fMg5jWvUFP8u-N-17" value="&lt;font face=&quot;Comic Sans MS&quot; style=&quot;font-size: 16px;&quot;&gt;Request Count&lt;/font&gt;" style="whiteSpace=wrap;html=1;aspect=fixed;" vertex="1" parent="UoUrf2fMg5jWvUFP8u-N-48">
          <mxGeometry x="37.5" y="61" width="90" height="90" as="geometry" />
        </mxCell>
        <mxCell id="UoUrf2fMg5jWvUFP8u-N-21" value="&lt;font face=&quot;Comic Sans MS&quot; style=&quot;font-size: 16px;&quot;&gt;Billing&lt;/font&gt;" style="whiteSpace=wrap;html=1;aspect=fixed;" vertex="1" parent="UoUrf2fMg5jWvUFP8u-N-48">
          <mxGeometry x="145" y="61" width="90" height="90" as="geometry" />
        </mxCell>
        <mxCell id="UoUrf2fMg5jWvUFP8u-N-22" value="&lt;font face=&quot;Comic Sans MS&quot; style=&quot;font-size: 16px;&quot;&gt;API Protection&lt;/font&gt;" style="whiteSpace=wrap;html=1;aspect=fixed;" vertex="1" parent="UoUrf2fMg5jWvUFP8u-N-48">
          <mxGeometry x="252.5" y="61" width="90" height="90" as="geometry" />
        </mxCell>
        <mxCell id="UoUrf2fMg5jWvUFP8u-N-23" value="&lt;font face=&quot;Comic Sans MS&quot; style=&quot;font-size: 16px;&quot;&gt;Authenti-cation&lt;/font&gt;" style="whiteSpace=wrap;html=1;aspect=fixed;" vertex="1" parent="UoUrf2fMg5jWvUFP8u-N-48">
          <mxGeometry x="37.5" y="164" width="90" height="90" as="geometry" />
        </mxCell>
        <mxCell id="UoUrf2fMg5jWvUFP8u-N-24" value="&lt;font face=&quot;Comic Sans MS&quot; style=&quot;font-size: 16px;&quot;&gt;Routing&lt;/font&gt;" style="whiteSpace=wrap;html=1;aspect=fixed;" vertex="1" parent="UoUrf2fMg5jWvUFP8u-N-48">
          <mxGeometry x="145" y="164" width="90" height="90" as="geometry" />
        </mxCell>
        <mxCell id="UoUrf2fMg5jWvUFP8u-N-25" value="&lt;font face=&quot;Comic Sans MS&quot; style=&quot;font-size: 16px;&quot;&gt;Logging&lt;/font&gt;" style="whiteSpace=wrap;html=1;aspect=fixed;" vertex="1" parent="UoUrf2fMg5jWvUFP8u-N-48">
          <mxGeometry x="252.5" y="164" width="90" height="90" as="geometry" />
        </mxCell>
        <mxCell id="UoUrf2fMg5jWvUFP8u-N-26" value="&lt;font face=&quot;Comic Sans MS&quot; style=&quot;font-size: 16px;&quot;&gt;CORS&lt;/font&gt;" style="whiteSpace=wrap;html=1;aspect=fixed;" vertex="1" parent="UoUrf2fMg5jWvUFP8u-N-48">
          <mxGeometry x="37.5" y="271" width="90" height="90" as="geometry" />
        </mxCell>
        <mxCell id="UoUrf2fMg5jWvUFP8u-N-27" value="&lt;font face=&quot;Comic Sans MS&quot; style=&quot;font-size: 16px;&quot;&gt;Caching&lt;/font&gt;" style="whiteSpace=wrap;html=1;aspect=fixed;" vertex="1" parent="UoUrf2fMg5jWvUFP8u-N-48">
          <mxGeometry x="145" y="271" width="90" height="90" as="geometry" />
        </mxCell>
        <mxCell id="UoUrf2fMg5jWvUFP8u-N-28" value="&lt;font face=&quot;Comic Sans MS&quot; style=&quot;font-size: 16px;&quot;&gt;Rate Limiting&lt;/font&gt;" style="whiteSpace=wrap;html=1;aspect=fixed;align=center;" vertex="1" parent="UoUrf2fMg5jWvUFP8u-N-48">
          <mxGeometry x="252.5" y="271" width="90" height="90" as="geometry" />
        </mxCell>
        <mxCell id="UoUrf2fMg5jWvUFP8u-N-47" value="&lt;font face=&quot;Comic Sans MS&quot; style=&quot;font-size: 20px;&quot;&gt;napi-gateway&lt;/font&gt;" style="text;html=1;strokeColor=none;fillColor=none;align=center;verticalAlign=middle;whiteSpace=wrap;rounded=0;" vertex="1" parent="UoUrf2fMg5jWvUFP8u-N-48">
          <mxGeometry x="42.5" y="10" width="300" height="30" as="geometry" />
        </mxCell>
        <mxCell id="UoUrf2fMg5jWvUFP8u-N-53" value="" style="edgeStyle=orthogonalEdgeStyle;rounded=0;orthogonalLoop=1;jettySize=auto;html=1;" edge="1" parent="1" source="UoUrf2fMg5jWvUFP8u-N-50" target="UoUrf2fMg5jWvUFP8u-N-13">
          <mxGeometry relative="1" as="geometry" />
        </mxCell>
        <mxCell id="UoUrf2fMg5jWvUFP8u-N-54" value="&lt;font face=&quot;Comic Sans MS&quot; style=&quot;font-size: 18px;&quot;&gt;Register&lt;/font&gt;" style="edgeLabel;html=1;align=center;verticalAlign=middle;resizable=0;points=[];" vertex="1" connectable="0" parent="UoUrf2fMg5jWvUFP8u-N-53">
          <mxGeometry x="0.1483" y="3" relative="1" as="geometry">
            <mxPoint as="offset" />
          </mxGeometry>
        </mxCell>
        <mxCell id="UoUrf2fMg5jWvUFP8u-N-50" value="&lt;font face=&quot;Comic Sans MS&quot; style=&quot;&quot;&gt;&lt;font style=&quot;font-size: 20px;&quot;&gt;napi-interface&lt;br&gt;&lt;/font&gt;&lt;/font&gt;&lt;font face=&quot;Comic Sans MS&quot; style=&quot;&quot;&gt;&lt;font style=&quot;font-size: 16px;&quot;&gt;(Provide essential APIs for powering the npi-hub platform)&lt;/font&gt;&lt;br&gt;&lt;/font&gt;" style="rounded=0;whiteSpace=wrap;html=1;spacingTop=0;" vertex="1" parent="1">
          <mxGeometry x="970" y="477" width="200" height="380" as="geometry" />
        </mxCell>
        <mxCell id="UoUrf2fMg5jWvUFP8u-N-51" style="edgeStyle=orthogonalEdgeStyle;rounded=0;orthogonalLoop=1;jettySize=auto;html=1;exitX=1;exitY=0.75;exitDx=0;exitDy=0;entryX=0;entryY=0.5;entryDx=0;entryDy=0;" edge="1" parent="1" source="UoUrf2fMg5jWvUFP8u-N-38" target="UoUrf2fMg5jWvUFP8u-N-18">
          <mxGeometry relative="1" as="geometry">
            <Array as="points">
              <mxPoint x="425" y="667" />
            </Array>
          </mxGeometry>
        </mxCell>
        <mxCell id="UoUrf2fMg5jWvUFP8u-N-52" style="edgeStyle=orthogonalEdgeStyle;rounded=0;orthogonalLoop=1;jettySize=auto;html=1;exitX=1;exitY=0.5;exitDx=0;exitDy=0;entryX=0;entryY=0.5;entryDx=0;entryDy=0;" edge="1" parent="1" source="UoUrf2fMg5jWvUFP8u-N-18" target="UoUrf2fMg5jWvUFP8u-N-50">
          <mxGeometry relative="1" as="geometry" />
        </mxCell>
      </root>
    </mxGraphModel>
  </diagram>
</mxfile>
